<svg width="58" height="28" viewBox="0 0 58 28" fill="none" xmlns="http://www.w3.org/2000/svg">
<path d="M22.6883 9.69425C23.9589 8.42359 23.9593 6.36382 22.6891 5.09362C21.4189 3.82341 19.3591 3.82377 18.0884 5.09442L11.1895 11.9934C9.91885 13.264 9.91849 15.3238 11.1887 16.594C12.4589 17.8642 14.5187 17.8638 15.7893 16.5932L22.6883 9.69425Z" fill="white"/>
<path d="M48.5307 27.7842C47.8956 27.7843 47.2748 27.5961 46.7467 27.2433C46.2186 26.8906 45.807 26.3891 45.5639 25.8024C45.3208 25.2156 45.2573 24.57 45.3812 23.9471C45.5051 23.3242 45.811 22.7521 46.2602 22.3031L49.389 19.1742C50.7387 17.7631 51.4823 15.8796 51.4608 13.927C51.4393 11.9745 50.6542 10.1079 49.2738 8.72681C47.8933 7.34574 46.027 6.55992 44.0745 6.53755C42.1219 6.51517 40.2381 7.25802 38.8264 8.60709L23.7181 23.7154C21.1127 26.321 17.579 27.785 13.8942 27.7852C10.2094 27.7854 6.67552 26.3219 4.06985 23.7165C1.46418 21.1111 0.000212929 17.5774 2.32255e-08 13.8926C-0.000212883 10.2078 1.46335 6.67392 4.06872 4.06825L7.16121 0.975752C7.7634 0.373563 8.58014 0.0352569 9.43177 0.0352569C10.2834 0.0352569 11.1001 0.373563 11.7023 0.975752C12.3045 1.57794 12.6428 2.39468 12.6428 3.24631C12.6428 4.09793 12.3045 4.91467 11.7023 5.51686L8.60756 8.60709C7.22639 10.0125 6.45628 11.9067 6.46487 13.8772C6.47346 15.8477 7.26005 17.735 8.65341 19.1284C10.0468 20.5218 11.9341 21.3083 13.9046 21.3169C15.8751 21.3255 17.7693 20.5554 19.1747 19.1742L34.2853 4.06825C36.8906 1.46318 40.4241 -0.000212883 44.1085 2.32282e-08C47.7928 0.000212929 51.3262 1.46401 53.9312 4.06938C56.5363 6.67475 57.9997 10.2083 57.9995 13.8926C57.9993 17.5769 56.5355 21.1103 53.9301 23.7154L50.799 26.8442C50.5014 27.1425 50.1479 27.3791 49.7586 27.5405C49.3694 27.7018 48.9521 27.7846 48.5307 27.7842Z" fill="white"/>
<path d="M35.2901 18.109C34.0195 19.3796 34.0191 21.4394 35.2893 22.7096C36.5595 23.9798 38.6193 23.9795 39.89 22.7088L46.7889 15.8099C48.0595 14.5392 48.0599 12.4794 46.7897 11.2092C45.5195 9.93903 43.4597 9.93939 42.1891 11.21L35.2901 18.109Z" fill="white"/>
</svg>
